<?xml version="1.0" encoding="UTF-8" standalone="no"?>
<!-- Created with Inkscape (http://www.inkscape.org/) -->

<svg
   xmlns:dc="http://purl.org/dc/elements/1.1/"
   xmlns:cc="http://creativecommons.org/ns#"
   xmlns:rdf="http://www.w3.org/1999/02/22-rdf-syntax-ns#"
   xmlns:svg="http://www.w3.org/2000/svg"
   xmlns="http://www.w3.org/2000/svg"
   xmlns:sodipodi="http://sodipodi.sourceforge.net/DTD/sodipodi-0.dtd"
   xmlns:inkscape="http://www.inkscape.org/namespaces/inkscape"
   version="1.1"
   id="svg2"
   xml:space="preserve"
   width="568.67249"
   height="432.74518"
   viewBox="0 0 568.67249 432.74518"
   sodipodi:docname="upcross-curve-example.svg"
   inkscape:version="0.92.4 (unknown)"><metadata
     id="metadata8"><rdf:RDF><cc:Work
         rdf:about=""><dc:format>image/svg+xml</dc:format><dc:type
           rdf:resource="http://purl.org/dc/dcmitype/StillImage" /><dc:title></dc:title></cc:Work></rdf:RDF></metadata><defs
     id="defs6"><marker
       inkscape:stockid="Arrow1Mend"
       orient="auto"
       refY="0.0"
       refX="0.0"
       id="Arrow1Mend"
       style="overflow:visible;"
       inkscape:isstock="true"><path
         id="path980"
         d="M 0.0,0.0 L 5.0,-5.0 L -12.5,0.0 L 5.0,5.0 L 0.0,0.0 z "
         style="fill-rule:evenodd;stroke:#884a81;stroke-width:1pt;stroke-opacity:1;fill:#884a81;fill-opacity:1"
         transform="scale(0.4) rotate(180) translate(10,0)" /></marker><marker
       inkscape:stockid="Arrow1Mstart"
       orient="auto"
       refY="0.0"
       refX="0.0"
       id="Arrow1Mstart"
       style="overflow:visible"
       inkscape:isstock="true"><path
         id="path977"
         d="M 0.0,0.0 L 5.0,-5.0 L -12.5,0.0 L 5.0,5.0 L 0.0,0.0 z "
         style="fill-rule:evenodd;stroke:#884a81;stroke-width:1pt;stroke-opacity:1;fill:#884a81;fill-opacity:1"
         transform="scale(0.4) translate(10,0)" /></marker><clipPath
       clipPathUnits="userSpaceOnUse"
       id="clipPath42"><path
         d="M -1021,-463 H 1794 V 1233 H -1021 Z"
         id="path40"
         inkscape:connector-curvature="0" /></clipPath><clipPath
       clipPathUnits="userSpaceOnUse"
       id="clipPath54"><path
         d="M -1021,-463 H 1794 V 1233 H -1021 Z"
         id="path52"
         inkscape:connector-curvature="0" /></clipPath><clipPath
       clipPathUnits="userSpaceOnUse"
       id="clipPath82"><path
         d="M -1016,-351 H 1660 V 1068 H -1016 Z"
         id="path80"
         inkscape:connector-curvature="0" /></clipPath><clipPath
       clipPathUnits="userSpaceOnUse"
       id="clipPath94"><path
         d="M -1021,-463 H 1794 V 1233 H -1021 Z"
         id="path92"
         inkscape:connector-curvature="0" /></clipPath><clipPath
       clipPathUnits="userSpaceOnUse"
       id="clipPath106"><path
         d="M -1016,-351 H 1660 V 1068 H -1016 Z"
         id="path104"
         inkscape:connector-curvature="0" /></clipPath><clipPath
       clipPathUnits="userSpaceOnUse"
       id="clipPath118"><path
         d="M -1016,-351 H 1660 V 1068 H -1016 Z"
         id="path116"
         inkscape:connector-curvature="0" /></clipPath><clipPath
       clipPathUnits="userSpaceOnUse"
       id="clipPath142"><path
         d="M 58.684375,47.746875 H 415.80437 V 313.85887 H 58.684375 Z"
         id="path140"
         inkscape:connector-curvature="0" /></clipPath><clipPath
       clipPathUnits="userSpaceOnUse"
       id="clipPath154"><path
         d="M 58.684375,47.746875 H 415.80437 V 313.85887 H 58.684375 Z"
         id="path152"
         inkscape:connector-curvature="0" /></clipPath></defs><sodipodi:namedview
     pagecolor="#ffffff"
     bordercolor="#666666"
     borderopacity="1"
     objecttolerance="10"
     gridtolerance="10"
     guidetolerance="10"
     inkscape:pageopacity="0"
     inkscape:pageshadow="2"
     inkscape:window-width="1299"
     inkscape:window-height="713"
     id="namedview4"
     showgrid="false"
     inkscape:zoom="0.77124926"
     inkscape:cx="262.31684"
     inkscape:cy="136.12141"
     inkscape:window-x="67"
     inkscape:window-y="27"
     inkscape:window-maximized="1"
     inkscape:current-layer="g10" /><g
     id="g10"
     inkscape:groupmode="layer"
     inkscape:label="upcross-curve-example"
     transform="matrix(1.3333333,0,0,-1.3333333,0,432.74517)"><path
       d="M 0,0 H 426.50437 V 324.55887 H 0 Z"
       style="fill:#ffffff;fill-opacity:1;fill-rule:nonzero;stroke:none"
       id="path12"
       inkscape:connector-curvature="0" /><path
       d="M 58.684375,47.746875 H 415.80437 V 313.85887 H 58.684375 Z"
       style="fill:#ffffff;fill-opacity:1;fill-rule:nonzero;stroke:none"
       id="path14"
       inkscape:connector-curvature="0" /><path
       d="m 237.24437,47.746875 v -3.5"
       style="fill:#000000;fill-opacity:1;fill-rule:nonzero;stroke:#000000;stroke-width:0.80000001;stroke-linecap:butt;stroke-linejoin:round;stroke-miterlimit:10;stroke-dasharray:none;stroke-opacity:1"
       id="path16"
       inkscape:connector-curvature="0" /><g
       id="g18"
       transform="translate(227.74437,30.2)"><text
         transform="matrix(1,0,0,-1,0,0.34375)"
         style="font-style:italic;font-variant:normal;font-size:14px;font-family:'DejaVu Sans';-inkscape-font-specification:DejaVuSans-Oblique;writing-mode:lr-tb;fill:#000000;fill-opacity:1;fill-rule:nonzero;stroke:none"
         id="text22"><tspan
           x="0"
           y="0"
           id="tspan20">v</tspan></text>
<text
         transform="matrix(1,0,0,-1,8.2851563,-1.953125)"
         style="font-variant:normal;font-weight:normal;font-size:9.80000019px;font-family:'DejaVu Sans';-inkscape-font-specification:DejaVuSans;writing-mode:lr-tb;fill:#000000;fill-opacity:1;fill-rule:nonzero;stroke:none"
         id="text26"><tspan
           x="0 3.8424804"
           y="0"
           sodipodi:role="line"
           id="tspan24">th</tspan></text>
</g><g
       id="g28"
       transform="translate(226.24437,10.528125)"><text
         transform="matrix(1,0,0,-1,6.2421875,0.859375)"
         style="font-style:italic;font-variant:normal;font-size:16px;font-family:'DejaVu Sans';-inkscape-font-specification:DejaVuSans-Oblique;writing-mode:lr-tb;fill:#000000;fill-opacity:1;fill-rule:nonzero;stroke:none"
         id="text32"><tspan
           x="0"
           y="0"
           id="tspan30">v</tspan></text>
<g
         id="g34"
         transform="matrix(0.016,0,0,0.016,0,0.859375)"><g
           id="g36"><g
             id="g38"
             clip-path="url(#clipPath42)"><path
               d="m 89,313 138,446 h 83 L 172,313 310,-131 H 227 L 89,313"
               style="fill:#000000;fill-opacity:1;fill-rule:nonzero;stroke:none"
               id="path44"
               inkscape:connector-curvature="0" /></g></g></g><g
         id="g46"
         transform="matrix(0.016,0,0,0.016,15.710938,0.859375)"><g
           id="g48"><g
             id="g50"
             clip-path="url(#clipPath54)"><path
               d="M 301,313 163,-131 H 80 L 218,313 80,759 h 83 L 301,313"
               style="fill:#000000;fill-opacity:1;fill-rule:nonzero;stroke:none"
               id="path56"
               inkscape:connector-curvature="0" /></g></g></g></g><path
       d="m 58.684375,301.76287 h -3.5"
       style="fill:#000000;fill-opacity:1;fill-rule:nonzero;stroke:#000000;stroke-width:0.80000001;stroke-linecap:butt;stroke-linejoin:round;stroke-miterlimit:10;stroke-dasharray:none;stroke-opacity:1"
       id="path58"
       inkscape:connector-curvature="0" /><g
       id="g60"
       transform="translate(26.684375,294.76287)"><text
         transform="matrix(1,0,0,-1,12.211133,7.0328125)"
         style="font-style:italic;font-variant:normal;font-size:6.86000013px;font-family:'DejaVu Sans';-inkscape-font-specification:DejaVuSans-Oblique;writing-mode:lr-tb;fill:#000000;fill-opacity:1;fill-rule:nonzero;stroke:none"
         id="text64"><tspan
           x="0"
           y="0"
           id="tspan62">v</tspan></text>
<text
         transform="matrix(1,0,0,-1,0,-4.615625)"
         style="font-variant:normal;font-weight:normal;font-size:9.80000019px;font-family:'DejaVu Sans';-inkscape-font-specification:DejaVuSans;writing-mode:lr-tb;fill:#000000;fill-opacity:1;fill-rule:nonzero;stroke:none"
         id="text68"><tspan
           x="0"
           y="0"
           id="tspan66">2</tspan></text>
<text
         transform="matrix(1,0,0,-1,18.346289,-6.2234375)"
         style="font-style:italic;font-variant:normal;font-size:6.86000013px;font-family:'DejaVu Sans';-inkscape-font-specification:DejaVuSans-Oblique;writing-mode:lr-tb;fill:#000000;fill-opacity:1;fill-rule:nonzero;stroke:none"
         id="text72"><tspan
           x="0"
           y="0"
           id="tspan70">v</tspan></text>
<g
         id="g74"
         transform="matrix(0.0098,0,0,0.0098,6,8.640625)"><g
           id="g76"><g
             id="g78"
             clip-path="url(#clipPath82)"><path
               d="m 347,476 c -50,0 -92,-18 -125,-54 -36,-38 -59,-87 -71,-149 -13,-66 -9,-117 12,-155 20,-38 55,-56 104,-56 47,0 88,19 124,57 35,37 59,88 72,154 11,59 7,109 -13,149 -19,36 -53,54 -103,54 m 14,71 H 659 L 642,457 H 541 C 566,406 572,345 559,273 541,183 505,113 451,63 396,12 329,-13 251,-13 173,-13 116,12 82,63 47,113 39,183 57,273 c 17,90 53,160 107,211 45,42 111,63 197,63"
               style="fill:#000000;fill-opacity:1;fill-rule:nonzero;stroke:none"
               id="path84"
               inkscape:connector-curvature="0" /></g></g></g><g
         id="g86"
         transform="matrix(0.00686,0,0,0.00686,16.257314,7.72)"><g
           id="g88"><g
             id="g90"
             clip-path="url(#clipPath94)"><path
               d="m -295,760 h 90 V 646 h -90 v 114 m 46,-200 v 0"
               style="fill:#000000;fill-opacity:1;fill-rule:nonzero;stroke:none"
               id="path96"
               inkscape:connector-curvature="0" /></g></g></g><g
         id="g98"
         transform="matrix(0.0098,0,0,0.0098,6.2350586,-4.615625)"><g
           id="g100"><g
             id="g102"
             clip-path="url(#clipPath106)"><path
               d="M 91,547 H 615 L 598,457 H 529 L 463,121 c -4,-24 -3,-41 3,-51 6,-10 17,-15 35,-15 5,0 11,0 19,2 7,0 12,1 14,1 L 521,-6 c -12,-4 -24,-7 -36,-9 -13,-2 -25,-3 -37,-3 -40,0 -65,11 -75,31 -11,21 -11,60 1,118 l 63,326 H 235 L 146,0 H 55 l 89,457 H 74 l 17,90"
               style="fill:#000000;fill-opacity:1;fill-rule:nonzero;stroke:none"
               id="path108"
               inkscape:connector-curvature="0" /></g></g></g><g
         id="g110"
         transform="matrix(0.0098,0,0,0.0098,12.135156,-4.615625)"><g
           id="g112"><g
             id="g114"
             clip-path="url(#clipPath118)"><path
               d="m 347,476 c -50,0 -92,-18 -125,-54 -36,-38 -59,-87 -71,-149 -13,-66 -9,-117 12,-155 20,-38 55,-56 104,-56 47,0 88,19 124,57 35,37 59,88 72,154 11,59 7,109 -13,149 -19,36 -53,54 -103,54 m 14,71 H 659 L 642,457 H 541 C 566,406 572,345 559,273 541,183 505,113 451,63 396,12 329,-13 251,-13 173,-13 116,12 82,63 47,113 39,183 57,273 c 17,90 53,160 107,211 45,42 111,63 197,63"
               style="fill:#000000;fill-opacity:1;fill-rule:nonzero;stroke:none"
               id="path120"
               inkscape:connector-curvature="0" /></g></g></g><g
         id="g122"><path
           d="m 0,3.5328125 h 22.673984 v 0.875 H 0 Z"
           style="fill:#000000;fill-opacity:1;fill-rule:nonzero;stroke:none"
           id="path124"
           inkscape:connector-curvature="0" /></g></g><g
       id="g126"
       transform="rotate(90,-75.473312,94.829563)"><text
         transform="matrix(1,0,0,-1,0,0.03125)"
         style="font-style:italic;font-variant:normal;font-size:16px;font-family:'DejaVu Sans';-inkscape-font-specification:DejaVuSans-Oblique;writing-mode:lr-tb;fill:#000000;fill-opacity:1;fill-rule:nonzero;stroke:none"
         id="text130"><tspan
           x="0"
           y="0"
           id="tspan128">r</tspan></text>
<text
         transform="matrix(1,0,0,-1,6.578125,-2.59375)"
         style="font-variant:normal;font-weight:normal;font-size:11.19999981px;font-family:'DejaVu Sans';-inkscape-font-specification:DejaVuSans;writing-mode:lr-tb;fill:#000000;fill-opacity:1;fill-rule:nonzero;stroke:none"
         id="text134"><tspan
           x="0 7.0984373"
           y="0"
           sodipodi:role="line"
           id="tspan132">uc</tspan></text>
</g><g
       id="g136"><g
         id="g138"
         clip-path="url(#clipPath142)"><path
           d="M 196.66256,59.842875 V 206.57477"
           style="fill:none;stroke:#ff7f0e;stroke-width:1.5;stroke-linecap:butt;stroke-linejoin:round;stroke-miterlimit:10;stroke-dasharray:5.55, 2.4;stroke-dashoffset:0;stroke-opacity:0.5"
           id="path144"
           inkscape:connector-curvature="0" /><path
           d="M 277.82619,59.842875 V 206.57477"
           style="fill:none;stroke:#ff7f0e;stroke-width:1.5;stroke-linecap:butt;stroke-linejoin:round;stroke-miterlimit:10;stroke-dasharray:5.55, 2.4;stroke-dashoffset:0;stroke-opacity:0.5"
           id="path146"
           inkscape:connector-curvature="0" /></g></g><g
       id="g148"><g
         id="g150"
         clip-path="url(#clipPath154)"><path
           d="m 74.917102,59.92403 4.058182,0.03931 4.058182,0.05657 4.058182,0.08055 4.058182,0.113471 4.058181,0.158139 4.058182,0.218024 4.058177,0.29735 4.05819,0.401147 4.05818,0.535292 4.05818,0.706477 4.05818,0.922149 4.05818,1.190321 4.05819,1.519333 4.05818,1.917469 4.05818,2.392463 4.05818,2.950899 4.05818,3.597493 4.05818,4.334303 4.05819,5.159889 4.05818,6.068505 4.05818,7.049349 4.05818,8.085997 4.05818,9.15604 4.05819,10.23109 4.05818,11.27714 4.05818,12.25534 4.05818,13.12325 4.05818,13.83659 4.05818,14.35122 4.05819,14.62557 4.05818,14.62313 4.05818,14.31495 4.05818,13.68191 4.05818,12.71668 4.05819,11.42509 4.05818,9.82665 4.05818,7.95461 4.05818,5.85475 4.05818,3.58375 4.05818,1.20658 4.05819,-1.20658 4.05818,-3.58375 4.05818,-5.85475 4.05818,-7.95461 4.05818,-9.82665 4.05819,-11.42509 4.05818,-12.71668 4.05818,-13.68191 4.05818,-14.31495 4.05818,-14.62313 4.05818,-14.62557 4.05819,-14.35122 4.05818,-13.83659 4.05818,-13.12325 4.05818,-12.25534 4.05818,-11.27714 4.05819,-10.23109 4.05818,-9.15604 4.05818,-8.085997 4.05818,-7.049349 4.05818,-6.068505 4.05818,-5.159889 4.05819,-4.334303 4.05818,-3.597493 4.05818,-2.950899 4.05818,-2.392463 4.05818,-1.917469 4.05819,-1.519333 4.05818,-1.190321 4.05818,-0.922149 4.05818,-0.706477 4.05818,-0.535292 4.05818,-0.401147 4.05819,-0.29735 4.05818,-0.218024 4.05818,-0.158139 4.05818,-0.113471 4.05818,-0.08055 4.05819,-0.05657 4.05818,-0.03931"
           style="fill:none;stroke:#1f77b4;stroke-width:1.5;stroke-linecap:square;stroke-linejoin:round;stroke-miterlimit:10;stroke-dasharray:none;stroke-opacity:1"
           id="path156"
           inkscape:connector-curvature="0" /></g></g><g
       id="g158"><path
         d="M 58.684375,47.746875 V 313.85887"
         style="fill:none;stroke:#000000;stroke-width:0.80000001;stroke-linecap:square;stroke-linejoin:miter;stroke-miterlimit:10;stroke-dasharray:none;stroke-opacity:1"
         id="path160"
         inkscape:connector-curvature="0" /><path
         d="M 58.684375,47.746875 H 415.80437"
         style="fill:none;stroke:#000000;stroke-width:0.80000001;stroke-linecap:square;stroke-linejoin:miter;stroke-miterlimit:10;stroke-dasharray:none;stroke-opacity:1"
         id="path162"
         inkscape:connector-curvature="0" /></g><path
       style="fill:none;stroke:#884a81;stroke-width:0.93750002;stroke-linecap:butt;stroke-linejoin:miter;stroke-miterlimit:4;stroke-dasharray:none;stroke-opacity:1;marker-start:url(#Arrow1Mstart);marker-end:url(#Arrow1Mend)"
       d="m 199.19002,206.57468 h 75.90429"
       id="path969"
       inkscape:connector-curvature="0" /><text
       xml:space="preserve"
       style="font-style:normal;font-weight:normal;font-size:32px;line-height:1.25;font-family:sans-serif;letter-spacing:0px;word-spacing:0px;fill:#000000;fill-opacity:1;stroke:none;stroke-width:0.75"
       x="224.9375"
       y="-190.7"
       id="text2147"
       transform="scale(1,-1)"><tspan
         sodipodi:role="line"
         id="tspan2145"
         x="224.9375"
         y="-190.7"
         style="font-style:italic;font-size:16px;stroke-width:0.75">2σ<tspan
   style="font-style:italic;font-size:16px;baseline-shift:sub"
   id="tspan2149">v</tspan></tspan></text>
</g></svg>